<?xml version="1.0" encoding="utf-8"?>
<!-- Generator: Adobe Illustrator 27.3.1, SVG Export Plug-In . SVG Version: 6.00 Build 0)  -->
<svg version="1.1" id="Lag_1" xmlns="http://www.w3.org/2000/svg" xmlns:xlink="http://www.w3.org/1999/xlink" x="0px" y="0px"
	 viewBox="0 0 595.28 841.89" style="enable-background:new 0 0 595.28 841.89;" xml:space="preserve">
<style type="text/css">
	.st0{fill:#F3F4CB;}
	.st1{fill:#334239;}
</style>
<path class="st0" d="M367.89,373.5c-3.97-1.82-10.4-4.19-18.55-4.63c-6.78-0.36-11.65,0.78-19.85,2.7c-4.13,0.97-12.74,3.22-23.02,8
	c-4,1.86-7.28,3.64-9.66,5.02c-0.14-1.45-0.61-3.94-2.3-6.42c-0.68-1-1.42-1.78-2.08-2.38c3.36-2.33,8.11-5.26,14.17-7.86
	c4.94-2.12,8.83-3.21,12.32-4.17c10.86-2.99,19.11-3.62,21.22-3.76c8.06-0.55,12.09-0.82,16.16,0.99
	C363.18,364.04,366.53,370.4,367.89,373.5z"/>
<path class="st0" d="M372.33,383.44c-5.83-4.99-12.8-6.22-19.95-6.84c-5.88-0.51-11.55,0.66-16.98,2.83
	c-3.14,1.25-6.09,2.97-9.18,4.35c-1.26,0.56-1.54,0.69-11.33,4.88c-7.86,3.36-11.79,5.05-12.1,5.24c-1.51,0.92-3.22,2.54-4.34,1.94
	c-0.26-0.14-0.68-0.49-1.3-3.88c-0.27-1.49-0.43-2.74-0.53-3.65c9.88-6.41,18.76-10.05,25.04-12.18c26.22-8.88,43.29-3.59,46.4-0.79
	c3.05,2.75,3.93,6.04,3.93,6.04C372.24,382.28,372.31,383.03,372.33,383.44z"/>
<path class="st0" d="M335.57,386.8c2.05,0.31,3.74,0.49,5.39,0.82c7.27,1.45,14.52,2.98,21.79,4.39c3.75,0.73,7.12,2.14,9.97,4.72
	c0.98,0.88,0.95,3.2-0.06,4.06c-0.57,0.49-0.99,0.53-1.57-0.16c-0.83-0.99-1.77-1.96-2.85-2.65c-4.32-2.76-9.22-4.12-14.12-5.3
	c-5.19-1.25-10.48-2.08-15.74-3.04C336.87,389.37,336.5,388.16,335.57,386.8z"/>
<path class="st0" d="M333.86,383.65c3.86-0.02,7.72-0.18,11.57-0.03c6.4,0.25,12.74,1.08,18.84,3.1c3.64,1.21,6.52,1.29,8.31,3.7
	c1.34,1.8,1.58,3.88,1.59,5.28c-0.93-1.09-2.41-2.62-4.52-4c-5.19-3.38-10.55-2.94-13.8-3.6c-7.31-1.49-14.67-2.68-22.01-4
	C333.85,383.95,333.86,383.8,333.86,383.65z"/>
<path class="st0" d="M371.62,386.92c-11.16-4.74-22.84-6.07-34.94-5.58c0.47-0.24,0.92-0.53,1.42-0.71c6.61-2.42,13.35-2.45,20.16-1
	c4.32,0.92,8.45,2.26,11.88,5.19c0.62,0.53,1.14,1.16,1.71,1.75C371.77,386.68,371.7,386.8,371.62,386.92z"/>
<path class="st0" d="M282.59,353.58c-7.01-1.18-18.3-2.08-31.24,1.54c-5.74,1.61-10.58,3.76-14.46,5.86c-2-0.91-3.99-1.82-5.99-2.73
	c2.85-2.75,8.32-7.32,16.53-10.13c6.81-2.33,11.96-2.16,19.44-2.11c5.04,0.04,8.37,0.53,11.41,2.69
	C280.51,350.3,281.83,352.24,282.59,353.58z"/>
<path class="st0" d="M286.35,364.58c-4.99-0.11-10.67,0.06-16.91,0.75c-6.17,0.68-11.7,1.75-16.51,2.92
	c-4.49-1.83-8.98-3.67-13.46-5.5c5.72-3.07,15.36-7.21,27.83-7.92c6.13-0.35,11.49,0.22,15.79,1.02c0.66,0.74,1.48,1.84,2.14,3.31
	C286.21,361.39,286.35,363.39,286.35,364.58z"/>
<path class="st0" d="M294.02,386.16c-0.92,0.78-3.49-1.34-8.66-3.57c-3.53-1.52-6.58-2.37-8.59-2.84c4.87-0.54,9.74-1.09,14.61-1.63
	C294.58,383.94,294.6,385.66,294.02,386.16z"/>
<path class="st1" d="M258,477.01c-7.98,6.58-16.17,14.09-24.29,22.67c-2.08,2.2-4.09,4.39-6.02,6.58c-1.21-1.38-2.42-2.75-3.62-4.13
	c65.87-68.55,108.21-112.61,108.35-112.76c0,0,0.03-0.04,0.09-0.09c0.06-0.07,0.16-0.18,0.27-0.3c0.64-0.7,2.07-2.26,3.91-4.18
	c1.3-1.36,2.6-2.72,3.86-4.12c6.51-7.22,12.96-14.5,19.46-21.72c3.89-4.32,5.69-7.46,10-10.9c3.15-2.51,8.63-6.88,11.54-4.93
	c2.38,1.6,1.97,6.72,1.28,9.44c-1.19,4.68-4.65,7.88-5.33,7.48c-0.52-0.31,0.85-2.59-0.13-5.25c-0.36-0.97-1.08-2.11-1.76-2.44
	c-2.58-1.27-8.22,7.17-14.57,15.2c-14.16,17.89-23,22.59-26.78,28.9c0,0,0,0,0,0c0,0,0,0,0,0c-42.82,45.2-61.88,65.34-66.82,70.59
	c0,0-0.03,0.03-0.03,0.03C260.9,473.98,258.63,476.37,258,477.01z"/>
<path class="st0" d="M265.69,339.93c2.62,0.84,6.68,2.52,11,6.08c-2.72-0.9-6.48-1.88-11.05-2.26c-2.62-0.22-8.22-0.64-15.03,1.12
	c-10.29,2.66-16.58,8.3-17.89,9.52c-1.52,1.41-2.66,2.72-3.43,3.66c-1.04-0.46-2.22-0.91-3.53-1.31c-1.65-0.5-3.18-0.82-4.53-1.03
	c1.1-1.18,2.72-2.84,4.8-4.7c2.67-2.38,6.66-6.12,11.83-8.58C250.14,336.59,261.95,338.73,265.69,339.93z"/>
<path class="st0" d="M211.93,379.1c-0.38-2.22,0.55-4.18,1.29-5.38c6.9,3.65,13.8,7.3,20.7,10.95c7.69,4.07,18.23,9.04,32.27,14.47
	c8.49,3.29,15.7,5.67,20.85,7.28c0.17,0.89,0.33,2.55-0.6,3.91c-1.25,1.83-3.72,2.05-4.96,2.16c-7.31,0.65-24.43-7.92-26.42-8.92
	c-11.95-5.7-23.91-11.41-35.86-17.11C219.2,386.47,212.59,382.98,211.93,379.1z"/>
<path class="st0" d="M218.55,375.3c-2.39-1.35-4.36-2.52-5.73-3.34c-0.11-0.72-0.23-2.13,0.31-3.77c0.58-1.78,1.63-2.91,2.17-3.42
	c0.05,0.03,8.06,4.08,8.11,4.11c0.97,0.49,4.38,2.22,4.4,2.23c17.74,8.97,33.01,15.38,33.01,15.38c7.87,3.3,18.13,7.31,30.47,11.38
	c0.21,3.49-0.8,5.07-1.62,5.86c-2.95,2.85-8.77,0.59-41.57-13.76C248.1,389.97,236.42,385.44,218.55,375.3z"/>
<path class="st0" d="M219.65,357.76c0.87-0.02,1.82,0.02,2.83,0.15c3.43,0.42,6.14,1.66,7.98,2.73
	c11.47,5.48,20.79,9.59,27.28,12.38c5.56,2.38,10.85,5.49,16.66,7.15c7.41,3.96,12.32,6.02,15.78,7.09
	c0.73,0.23,2.39,0.71,3.22,2.18c1.35,2.39-0.41,5.76-1.3,7.26c-6.31-2.39-12.73-4.9-19.24-7.53c-5.36-2.17-10.6-4.36-15.75-6.57
	c0,0-19.01-8.15-32.18-14.95c-3.61-1.86-6.63-3.49-8.83-4.69c0.02-0.55,0.15-2.29,1.5-3.76
	C218.33,358.38,219.14,357.97,219.65,357.76z"/>
<path class="st0" d="M212.33,384.38c9.01,4.99,16.77,9.06,22.78,12.14c19.77,10.13,28.07,13.32,36.37,15.68
	c4.02,1.14,7.39,1.9,9.65,2.37c-0.67,0.65-1.4,1.31-2.2,1.98c-0.7,0.59-1.38,1.12-2.04,1.61c0,0-0.94,0.36-2.04,0.53
	c-4.07,0.66-10.18-0.84-28.82-8.74c-14.8-6.27-8.22-4.18-18.08-8.36c-1.2-0.51-4.99-2.84-12.57-7.5c-0.81-0.5-2.26-1.41-3.11-3.16
	C211.06,388.42,211.84,385.71,212.33,384.38z"/>
<path class="st0" d="M327.11,386.62"/>
<path class="st0" d="M260.85,477.65c3.02,0.63,9.94,1.72,17.68-0.21c3.06-0.76,7.39-1.85,10.66-4.43c0.37-0.3,1.25-1.02,2.6-1.72
	c2.72-1.41,5.98-2.03,6.18-1.54c0.42,0.99-11.5,7.81-23.73,12.85c-7.92,3.26-11.32,3.91-17.71,7.89c-3.95,2.46-4.06,3.11-9.91,7.19
	c-5.46,3.81-15.88,10.58-16.6,9.65c-0.71-0.91,8.06-8.95,20.06-19.96C254.55,483.27,258.29,479.92,260.85,477.65z"/>
<path class="st0" d="M288.96,363.03c3.51-2.19,8.22-4.75,14.08-6.93c4.11-1.53,10.41-3.48,18.39-4.4
	c7.97-0.92,15.24-1.76,23.58,1.36c4.55,1.7,7.9,4.01,9.97,5.66c-6.61-0.95-14.87-1.39-24.2-0.19c-7.6,0.98-17.82,3.28-28.67,8.74
	c-3.86,1.94-6.94,3.85-9.09,5.28c-0.05-1.21-0.27-3.18-1.25-5.36C290.9,365.24,289.77,363.87,288.96,363.03z"/>
<path class="st0" d="M363.46,417.97c-1.94,1.91-3.85,3.84-5.82,5.71c-0.99,0.94-1.59,1.34-2.31,1.77c-1.85,1.11-3.86,1.67-6.08,1.86
	c-5.35,0.47-11.72-1.16-18.68-2.51c-7.57-1.47-8.05-1.09-12.08-2.37c-8.83-2.8-10.81-5.98-11.32-6.92
	c-1.66-3.08-1.61-6.27-1.61-6.27c-0.05-0.22,0.02-0.47,0.06-1.05c6.22,3.27,11.72,5.34,15.82,6.66c6.54,2.11,16.53,5.23,29.39,4.45
	c5.21-0.31,9.48-1.18,12.4-1.92C363.3,417.58,363.38,417.77,363.46,417.97z"/>
<path class="st0" d="M370.59,405.93c-0.87,1.73-1.73,3.46-2.62,5.18c-0.29,0.56-0.56,1.26-1.2,2.02c0,0,0,0,0,0
	c0,0-1.23,1.2-2.84,2.07c-5.81,3.13-18.11,2.02-18.11,2.02c-1.6-0.14-8.13-0.76-16.58-2.65c-3.6-0.8-10.36-3.14-15.13-4.81
	c-1.76-0.62-3.34-1.75-5.02-2.61c-1.2-0.61-2.46-1.12-3.65-1.76c-0.31-0.17-0.57-0.53-0.97-1.02c-1.41-1.74-2.35-3.91-2.95-5.66
	c1.82-1.05,3.64-2.11,5.46-3.16c3.23,2.47,7.85,5.66,13.77,8.71c5.83,3.01,11.05,5.84,18.59,7.07c8.88,1.45,17.52,0.84,25.81-2.83
	c0.31-0.14,1.49-1.49,3.5-2.16C369.48,406.06,370.19,405.97,370.59,405.93z"/>
<path class="st0" d="M309.33,393.7c2.66-1.31,5.04-2.53,7.48-3.61c0.4-0.18,1.15,0.13,1.59,0.43c3.1,2.07,6.23,4.1,9.22,6.32
	c5.97,4.42,12.69,7.1,19.93,8.28c4.88,0.8,9.85,0.99,14.78,1.42c0.5,0.04,1.02-0.08,1.63,0.21c-1.05,0.45-2.07,1-3.16,1.32
	c-6.55,1.93-13.19,2.23-19.95,1.33c-7.52-0.99-14.19-4.05-20.49-8.06c-3.26-2.08-6.44-4.29-9.65-6.45
	C310.34,394.64,310.01,394.29,309.33,393.7z"/>
<path class="st0" d="M323.45,340.07c-6.79,0.14-15.79,1.09-25.81,4.38c-5.41,1.78-10.09,3.91-13.99,6
	c-1.11-1.79-2.23-3.58-3.34-5.37c2.98-2.41,7.71-5.56,14.14-7.41C308.09,333.74,319.73,338.39,323.45,340.07z"/>
<path class="st0" d="M350.76,403.55c-3.9-0.3-7.22-1.23-10.51-2.39c-5.49-1.93-10.05-5.42-14.74-8.69c-1.67-1.16-3.28-2.4-5.13-3.76
	c2.07-0.95,3.93-1.79,5.78-2.64c1.11-0.51,2.27-0.95,3.32-1.57c0.88-0.52,1.34-0.37,1.89,0.48c2.62,4.05,5.5,7.93,9.17,11.06
	c2.83,2.41,5.94,4.48,8.93,6.69C349.77,402.95,350.1,403.13,350.76,403.55z"/>
<path class="st0" d="M308.86,420.5c4.32,2.52,8.86,4.2,13.7,4.96c8.95,1.41,17.91,2.74,26.7,4.07c-2.81,1.64-5.92,3.33-9.65,3.33
	c-5,0-9.85-0.8-19.65-3.81c-2.34-0.72-4.79-1.55-7.23-3.65C310.75,423.68,309.55,421.8,308.86,420.5z"/>
<path class="st0" d="M313.23,428.58c7.56,3.74,15.63,5.19,23.93,6.15c-1.62,0.32-3.27,0.55-4.86,0.96c-4.95,1.3-9.63,0.67-14.04-1.9
	C316.14,432.56,314.4,430.89,313.23,428.58z"/>
<path class="st0" d="M347.99,398.59c1.59-0.34,3.18-0.71,4.78-1.01c0.91-0.17,1.89-0.11,2.76-0.37c2.76-0.84,5.31-0.46,7.75,1.01
	c0.37,0.22,0.8,0.33,1.43,0.59c-0.49,0.23-0.79,0.45-1.13,0.51c-3.62,0.63-7.23,1.27-10.86,1.81c-2.01,0.3-3.24-1.24-4.77-2.05
	C347.96,398.91,347.97,398.75,347.99,398.59z"/>
<path class="st0" d="M340.7,392.04c12.6,1.77,15.19,2.83,15.16,3.47c-0.05,1.05-7.12,1.69-10.04,1.6c-0.15,0-0.33-0.02-0.56-0.05
	C342.93,396.7,341.26,393.29,340.7,392.04z"/>
<path class="st0" d="M370.07,403.08c-4.81,2.09-9.59,1.27-14.55-0.01c3.04-0.68,6.02-1.04,8.78-2.04
	C366.99,400.06,368.63,400.89,370.07,403.08z"/>
<path class="st0" d="M243.04,442.07"/>
<path class="st0" d="M288.23,361.26c-1.45-2.87-2.91-5.74-4.36-8.61c8.81-3.94,16.52-6.11,22.16-7.36
	c9.8-2.18,16.52-3.58,24.44-1.12c5.28,1.64,9.14,4.39,11.53,6.43c-6.12-0.99-15.39-1.75-26.37,0.21
	C303.14,353.03,293.81,357.83,288.23,361.26z"/>
<path class="st0" d="M254.76,369.92c10.97-1.02,21.95-2.05,32.92-3.07c0.61,0.54,1.91,1.85,2.61,3.99c0.66,2.04,0.43,3.79,0.27,4.59
	c-5.85,0.72-11.7,1.43-17.55,2.15C266.92,375.03,260.84,372.47,254.76,369.92z"/>
<path class="st0" d="M212.98,393.62c1.41,1.08,2.91,2.17,4.5,3.25c2.52,1.72,4.97,3.23,7.31,4.56c-0.8,0.35-3.32,1.34-6.3,0.47
	c-0.86-0.25-3.01-0.88-4.44-3.04C212.56,396.6,212.89,394.21,212.98,393.62z"/>
<path class="st0" d="M217.49,403.69c0.11,0.51,1.15,4.84,5.27,6.68c3.59,1.6,6.98,0.17,7.91-0.23c2.12-0.9,3.47-2.27,4.17-3.09
	c-2.55-1.37-5.11-2.73-7.66-4.1c-1.61,0.45-3.22,0.91-4.84,1.36"/>
<path class="st0" d="M224.68,412.61c0.42,0.56,3.41,4.42,8.54,4.66c4.32,0.21,8.47-2.22,10.64-6.22c-2.38-1.06-4.76-2.11-7.14-3.17
	c-0.93,0.85-2.18,1.81-3.78,2.64C229.65,412.25,226.54,412.58,224.68,412.61z"/>
<path class="st0" d="M233.81,419.43c0.81,0.5,7.01,4.24,11.7,2.02c1.33-0.63,2.78-1.85,2.87-1.93c1.98-1.73,3.14-3.6,3.79-4.85
	c-2.25-0.95-4.49-1.89-6.74-2.84c-0.43,1.04-1.11,2.32-2.23,3.54C239.8,419.06,235.09,419.38,233.81,419.43z"/>
<path class="st0" d="M247.83,422.39c1.08-0.68,2.57-1.8,3.95-3.52c1.01-1.26,1.68-2.48,2.12-3.46c2.73,0.84,5.46,1.68,8.19,2.51
	c-0.05,0.75-0.25,2.03-1.15,3.14c-0.29,0.35-1.32,1.52-4.61,2.05C254.64,423.38,251.62,423.6,247.83,422.39z"/>
<path class="st0" d="M262.5,422.13c-0.46-0.65,0.25-1.97,0.99-3.05c4.93,0.26,6.17,0.77,6.21,1.23
	C269.81,421.4,263.51,423.56,262.5,422.13z"/>
<path class="st0" d="M218.98,410.85c2,2.1,4.01,4.21,6.01,6.31c1.17,2.93,2.34,5.86,3.51,8.78c-0.74-0.04-7.19-0.43-9.25-4.61
	c-0.82-1.67-0.85-3.76-0.88-5.33C218.35,413.86,218.67,412.08,218.98,410.85z"/>
<path class="st0" d="M219.13,424.34c-0.25,1-1.03,4.66,1.03,7.91c2.23,3.52,6.35,4.21,8.48,4.57c2.56,0.44,4.72,0.16,6.07-0.13
	c-1.44-2.69-2.88-5.39-4.32-8.08c-1.13,0-2.5-0.11-4.01-0.48C222.91,427.29,220.47,425.51,219.13,424.34z"/>
<path class="st0" d="M225.8,449.28c0.11,1.31,0.53,3.97,2.56,5.9c3.6,3.43,9.48,1.91,12,1.26c1.8-0.47,5.05-1.58,8.38-4.51
	c-1.97-1.95-3.94-3.91-5.91-5.86c-2.12,1.27-5.87,3.12-10.83,3.52C229.58,449.78,227.47,449.58,225.8,449.28z"/>
<path class="st0" d="M230.59,459.27c2.19,0.26,5.18,0.37,8.63-0.27c5.63-1.05,9.68-3.56,11.89-5.19c1.65,1.35,3.29,2.7,4.94,4.05
	c-3.73,5.63-10.06,8.59-16.02,7.52C234.56,464.4,231.41,460.4,230.59,459.27z"/>
<path class="st0" d="M320.86,448.61c0.07,0.52,0.16,1.88-0.62,3.25c-1.34,2.35-4.06,2.62-4.34,2.64c-4.45,0.46-9.37,0.52-14.63-0.09
	c-26.2-3.07-43.43-21.04-49.98-28.73c2.66-0.15,5.33-0.29,7.99-0.44c11.16,9.95,21.82,14.84,28.42,17.27
	c8.92,3.29,17.12,4.53,20.23,4.99C313.09,448.25,317.52,448.52,320.86,448.61z"/>
<path class="st0" d="M315.76,457.02c-0.67,1.07-1.76,2.54-3.47,3.81c-3.56,2.64-7.89,2.99-14.01,2.35
	c-5.74-0.6-14.19-1.58-24.78-7.04c-8.25-4.26-13.59-9.06-17.1-12.28c-7.95-7.28-13.2-14.6-16.46-19.85c2.43,0.4,4.85,0.8,7.28,1.2
	c2.07,2.33,18.8,20.83,37.65,27.54c7.9,2.81,15.84,3.84,15.84,3.84C306.65,457.36,311.8,457.3,315.76,457.02z"/>
<path class="st0" d="M308.05,464.79c-3.62,1.71-9.42,3.92-16.69,4.26c-19.01,0.91-33.03-11.55-41.35-18.94
	c-5.96-5.29-15.86-15.55-23.07-32.19c3.3,1.83,6.61,3.67,9.91,5.5c3.61,6.64,16.6,28.6,43.25,37.65
	C291.09,464.8,301.01,465.19,308.05,464.79z"/>
<path class="st0" d="M221.56,437.21c-0.2,0.69-0.82,3.18,0.45,5.81c0.29,0.59,1.02,1.91,2.47,2.94c2.41,1.7,5.13,1.42,7.28,1.2
	c3.79-0.38,6.72-1.91,8.58-3.15c-1.3-1.66-2.59-3.33-3.89-4.99c-1.71,0.44-4.57,0.94-8.07,0.44
	C225.35,439.03,223.02,438,221.56,437.21z"/>
<path class="st0" d="M262.98,423.82c4.62,4.59,12.51,11.3,23.97,16.23c14.04,6.03,26.62,6.47,33.58,6.19
	c0.13-0.08,1.41-0.88,1.53-2.41c0.08-1.13-0.51-1.93-0.67-2.12c-7.74-1.6-17.07-4.2-27.23-8.52c-8.8-3.75-16.2-7.93-22.17-11.82
	c-0.79,0.61-2.01,1.39-3.65,1.93C266.08,424.04,264.11,423.96,262.98,423.82z"/>
<path class="st0" d="M274.63,420.49c2.08,1.25,4.84,2.84,8.15,4.58c7.98,4.19,14.36,6.68,16.32,7.43c3.48,1.33,7.75,2.6,16.28,5.12
	c3.52,1.04,5.65,1.63,5.83,1.22c0.23-0.51-2.74-2.28-7.86-5.33c-14.67-8.74-15.46-9.81-21.31-12.39c-2.2-0.97-5.61-2.37-9.97-3.73
	C279.6,418.43,277.11,419.46,274.63,420.49z"/>
<path class="st0" d="M284.9,415.89c1.86-2.14,4.01-5,5.96-8.62c2.41-4.48,3.7-8.62,4.42-11.79c0.73,2.71,1.79,8.2,0.05,14.66
	c-0.99,3.69-2.59,6.52-3.88,8.42C289.26,417.67,287.08,416.78,284.9,415.89z"/>
<path class="st0" d="M293.35,420.12c1.46-1.71,4.59-5.87,5.44-12.06c0.61-4.4-0.19-8-0.82-10.05c1.31,1.37,4.02,4.58,4.95,9.46
	c1.55,8.15-3.09,14.37-3.89,15.4C297.14,421.96,295.24,421.04,293.35,420.12z"/>
<path class="st0" d="M300.9,424.09c1.9,1.04,3.81,2.09,5.71,3.13c0.47-0.73,1.47-2.54,1.38-4.97c-0.14-4-3.12-6.37-3.58-6.72
	c0.07,1,0.07,3.09-1.04,5.34C302.6,422.45,301.59,423.49,300.9,424.09z"/>
<path class="st0" d="M308.42,427.71c1.38,0.97,2.75,1.94,4.13,2.91c-0.98-3.82-1.87-5.71-2.66-5.67
	C309.35,424.98,308.86,425.9,308.42,427.71z"/>
<path class="st0" d="M239.59,468.05c1.95,0.17,5.47,0.21,9.48-1.29c4.88-1.82,7.84-4.94,9.14-6.49c2.12,1.42,4.24,2.84,6.36,4.26
	c-0.41,0.53-6.96,8.67-16.4,7.45C243.98,471.44,241.03,469.29,239.59,468.05z"/>
<path class="st0" d="M251.17,473.93c1.52,0.71,5.78,2.46,11.19,1.45c6.63-1.23,10.35-5.75,11.25-6.92
	c-2.38-0.79-4.77-1.59-7.15-2.38c-1.28,1.52-3.72,3.99-7.53,5.79C255.83,473.34,253.01,473.79,251.17,473.93z"/>
<path class="st0" d="M276.56,469.17c3.6,0.73,7.2,1.47,10.8,2.2c-1.95,1.25-4.67,2.68-8.1,3.69c-5.61,1.64-10.46,1.35-13.38,0.94
	c2.11-0.82,4.67-2.07,7.3-3.99C274.48,471.06,275.6,470.09,276.56,469.17z"/>
</svg>
